<?xml version="1.0" encoding="utf-8"?>
<!-- Generator: Adobe Illustrator 24.2.0, SVG Export Plug-In . SVG Version: 6.00 Build 0)  -->
<svg version="1.1" xmlns="http://www.w3.org/2000/svg" xmlns:xlink="http://www.w3.org/1999/xlink" x="0px" y="0px"
	 viewBox="0 0 64 64" style="enable-background:new 0 0 64 64;" xml:space="preserve">
<style type="text/css">
	.st0{fill:none;stroke:#000000;stroke-miterlimit:10;}
	.st1{fill:none;stroke:#000000;stroke-linecap:round;stroke-miterlimit:10;}
	.st2{fill:#FFFFFF;stroke:#000000;stroke-linecap:round;stroke-miterlimit:10;}
	.st3{fill:none;stroke:#000000;stroke-width:0.75;stroke-linecap:round;stroke-linejoin:round;stroke-miterlimit:10;}
	.st4{fill:none;stroke:#000000;stroke-linecap:round;stroke-linejoin:round;stroke-miterlimit:10;}
</style>
<g id="Camada_1">
</g>
<g id="Camada_2">
	<path class="st1" d="M52.1,32c0,0.4,0,0.8,0,1.2c0,0.5-0.5,0.9-1,0.9h-2.2c-0.5,0-0.9,0.3-0.9,0.8c-0.4,2.3-1.3,4.5-2.6,6.3
		c-0.3,0.4-0.2,0.9,0.1,1.2l1.6,1.6c0.4,0.4,0.4,0.9,0.1,1.3c-0.5,0.6-1.1,1.2-1.7,1.7c-0.4,0.3-0.9,0.3-1.3-0.1l-1.6-1.6
		c-0.3-0.3-0.8-0.4-1.2-0.1c-1.9,1.3-4,2.2-6.3,2.6c-0.5,0.1-0.8,0.5-0.8,0.9v2.2c0,0.5-0.4,0.9-0.9,1c-0.4,0-0.8,0-1.2,0
		c-0.4,0-0.8,0-1.2,0c-0.5,0-0.9-0.5-0.9-1v-2.2c0-0.5-0.3-0.9-0.8-0.9c-2.3-0.4-4.5-1.3-6.3-2.6c-0.4-0.3-0.9-0.2-1.2,0.1L19.9,47
		c-0.4,0.4-0.9,0.4-1.3,0.1c-0.6-0.5-1.2-1.1-1.7-1.7c-0.3-0.4-0.3-0.9,0.1-1.3l1.6-1.6c0.3-0.3,0.4-0.8,0.1-1.2
		c-1.3-1.9-2.2-4-2.6-6.3c-0.1-0.5-0.5-0.8-0.9-0.8h-2.2c-0.5,0-0.9-0.4-1-0.9c0-0.4,0-0.8,0-1.2c0-0.4,0-0.8,0-1.2
		c0-0.5,0.5-0.9,1-0.9h2.2c0.5,0,0.9-0.3,0.9-0.8c0.4-2.3,1.3-4.5,2.6-6.3c0.3-0.4,0.2-0.9-0.1-1.2L17,19.9
		c-0.4-0.4-0.4-0.9-0.1-1.3c0.5-0.6,1.1-1.2,1.7-1.7c0.4-0.3,0.9-0.3,1.3,0.1l1.6,1.6c0.3,0.3,0.8,0.4,1.2,0.1
		c1.9-1.3,4-2.2,6.3-2.6c0.5-0.1,0.8-0.5,0.8-0.9v-2.2c0-0.5,0.4-0.9,0.9-1c0.4,0,0.8,0,1.2,0c0.4,0,0.8,0,1.2,0
		c0.5,0,0.9,0.5,0.9,1v2.2c0,0.5,0.3,0.9,0.8,0.9c2.3,0.4,4.5,1.3,6.3,2.6c0.4,0.3,0.9,0.2,1.2-0.1l1.6-1.6c0.4-0.4,0.9-0.4,1.3-0.1
		c0.6,0.5,1.2,1.1,1.7,1.7c0.3,0.4,0.3,0.9-0.1,1.3l-1.6,1.6c-0.3,0.3-0.4,0.8-0.1,1.2c1.3,1.9,2.2,4,2.6,6.3
		c0.1,0.5,0.5,0.8,0.9,0.8h2.2c0.5,0,0.9,0.4,1,0.9C52.1,31.2,52.1,31.6,52.1,32z"/>
	<circle class="st1" cx="32" cy="32" r="9.5"/>
</g>
</svg>
