<?xml version="1.0" encoding="utf-8"?>
<!-- Generator: Adobe Illustrator 24.2.0, SVG Export Plug-In . SVG Version: 6.00 Build 0)  -->
<svg version="1.1" id="Camada_1" xmlns="http://www.w3.org/2000/svg" xmlns:xlink="http://www.w3.org/1999/xlink" x="0px" y="0px"
	 viewBox="0 0 64 64" style="enable-background:new 0 0 64 64;" xml:space="preserve">
<style type="text/css">
	.st0{fill:#FFFFFF;}
	.st1{fill:#FFFFFF;stroke:#000000;stroke-miterlimit:10;}
	.st2{fill:none;stroke:#000000;stroke-linecap:round;stroke-miterlimit:10;}
	.st3{fill:none;stroke:#000000;stroke-miterlimit:10;}
	.st4{fill:none;stroke:#000000;stroke-linecap:round;stroke-linejoin:round;stroke-miterlimit:10;}
	.st5{fill:#FFFFFF;stroke:#000000;stroke-linecap:round;stroke-miterlimit:10;}
	.st6{fill:#FFFFFF;stroke:#000000;stroke-linecap:round;stroke-linejoin:round;stroke-miterlimit:10;}
</style>
<g>
	<circle class="st4" cx="46.6" cy="46.6" r="5"/>
	<circle class="st4" cx="46.6" cy="46.6" r="1.4"/>
	<polyline class="st4" points="44.2,51.1 12.4,51.1 12.4,42.2 40.1,42.2 	"/>
	<polyline class="st4" points="51.1,44.2 51.1,12.4 42.3,12.4 42.3,38.4 	"/>
	<line class="st4" x1="17.3" y1="42.2" x2="17.3" y2="44.8"/>
	<line class="st4" x1="25.2" y1="42.2" x2="25.2" y2="44.8"/>
	<line class="st4" x1="33.2" y1="42.2" x2="33.2" y2="44.8"/>
	<line class="st4" x1="29.1" y1="42.2" x2="29.1" y2="47.3"/>
	<line class="st4" x1="21.2" y1="42.2" x2="21.2" y2="47.3"/>
	<line class="st4" x1="42.8" y1="32.3" x2="45.4" y2="32.3"/>
	<line class="st4" x1="42.8" y1="24.4" x2="45.4" y2="24.4"/>
	<line class="st4" x1="42.8" y1="16.3" x2="45.4" y2="16.3"/>
	<line class="st4" x1="42.8" y1="20.3" x2="47.8" y2="20.3"/>
	<line class="st4" x1="42.8" y1="28.3" x2="47.8" y2="28.3"/>
	<g>
		<path d="M17.3,20.5l4.3,10.8l4.3-10.8h2.3v13.2h-1.7v-5.1l0.2-5.5l-4.3,10.7h-1.3l-4.3-10.7l0.2,5.5v5.1h-1.7V20.5H17.3z"/>
		<path d="M35.9,27.7h-5.4v-1l2.7-2.6c0.7-0.6,1-1.1,1-1.6c0-0.3-0.1-0.5-0.3-0.7c-0.2-0.2-0.5-0.3-0.8-0.3c-0.5,0-0.8,0.1-1,0.3
			c-0.2,0.2-0.3,0.5-0.3,0.9h-1.4c0-0.7,0.3-1.3,0.8-1.7c0.5-0.4,1.2-0.7,2-0.7c0.8,0,1.4,0.2,1.9,0.6c0.5,0.4,0.7,0.9,0.7,1.6
			c0,0.6-0.3,1.3-1,1.9l-0.8,0.7l-1.6,1.3h3.6V27.7z"/>
	</g>
</g>
</svg>
