<?xml version="1.0" encoding="utf-8"?>
<!-- Generator: Adobe Illustrator 24.2.0, SVG Export Plug-In . SVG Version: 6.00 Build 0)  -->
<svg version="1.1" id="Camada_1" xmlns="http://www.w3.org/2000/svg" xmlns:xlink="http://www.w3.org/1999/xlink" x="0px" y="0px"
	 viewBox="0 0 64 64" style="enable-background:new 0 0 64 64;" xml:space="preserve">
<style type="text/css">
	.st0{fill:#FFFFFF;}
	.st1{fill:#FFFFFF;stroke:#000000;stroke-miterlimit:10;}
	.st2{fill:none;stroke:#000000;stroke-linecap:round;stroke-miterlimit:10;}
	.st3{fill:none;stroke:#000000;stroke-miterlimit:10;}
	.st4{fill:none;stroke:#000000;stroke-linecap:round;stroke-linejoin:round;stroke-miterlimit:10;}
	.st5{fill:#FFFFFF;stroke:#000000;stroke-linecap:round;stroke-miterlimit:10;}
	.st6{fill:#FFFFFF;stroke:#000000;stroke-linecap:round;stroke-linejoin:round;stroke-miterlimit:10;}
</style>
<g>
	<path class="st1" d="M40.8,29.4H23.2c-1,0-1.8-0.8-1.8-1.8V14.1h21.2v13.6C42.6,28.6,41.8,29.4,40.8,29.4z"/>
	<path class="st1" d="M42.2,14.1H21.8c-0.5,0-0.9-0.4-0.9-0.9v-0.5c0-0.5,0.4-0.9,0.9-0.9h20.5c0.5,0,0.9,0.4,0.9,0.9v0.5
		C43.1,13.7,42.7,14.1,42.2,14.1z"/>
	<path class="st1" d="M42.8,33.9H21.2c-0.5,0-0.9-0.4-0.9-0.9v-0.5c0-0.5,0.4-0.9,0.9-0.9h21.6c0.5,0,0.9,0.4,0.9,0.9V33
		C43.7,33.5,43.3,33.9,42.8,33.9z"/>
	<path class="st1" d="M37.4,52.1H26.6c-0.6,0-1.1-0.5-1.1-1.1v-8.4h13v8.4C38.5,51.7,38,52.1,37.4,52.1z"/>
	<path class="st1" d="M20.8,33.9C20.8,40,25.8,45,32,45s11.2-5,11.2-11.2H20.8z"/>
	<rect x="23.7" y="29.4" class="st1" width="16.6" height="2.2"/>
</g>
</svg>
