<?xml version="1.0" encoding="utf-8"?>
<!-- Generator: Adobe Illustrator 24.2.0, SVG Export Plug-In . SVG Version: 6.00 Build 0)  -->
<svg version="1.1" id="Camada_1" xmlns="http://www.w3.org/2000/svg" xmlns:xlink="http://www.w3.org/1999/xlink" x="0px" y="0px"
	 viewBox="0 0 64 64" style="enable-background:new 0 0 64 64;" xml:space="preserve">
<style type="text/css">
	.st0{fill:#FFFFFF;}
	.st1{fill:#FFFFFF;stroke:#000000;stroke-miterlimit:10;}
	.st2{fill:none;stroke:#000000;stroke-linecap:round;stroke-miterlimit:10;}
	.st3{fill:none;stroke:#000000;stroke-miterlimit:10;}
	.st4{fill:none;stroke:#000000;stroke-linecap:round;stroke-linejoin:round;stroke-miterlimit:10;}
	.st5{fill:#FFFFFF;stroke:#000000;stroke-linecap:round;stroke-miterlimit:10;}
	.st6{fill:#FFFFFF;stroke:#000000;stroke-linecap:round;stroke-linejoin:round;stroke-miterlimit:10;}
</style>
<g>
	<path class="st1" d="M15.1,52.1h-3.8c-0.9,0-1.6-0.7-1.6-1.6v-5.3c0-0.9,0.7-1.6,1.6-1.6h3.8c0.9,0,1.6,0.7,1.6,1.6v5.3
		C16.7,51.4,16,52.1,15.1,52.1z"/>
	<path class="st1" d="M52.6,52.1h-3.8c-0.9,0-1.6-0.7-1.6-1.6v-5.3c0-0.9,0.7-1.6,1.6-1.6h3.8c0.9,0,1.6,0.7,1.6,1.6v5.3
		C54.3,51.4,53.5,52.1,52.6,52.1z"/>
	<path class="st1" d="M54.7,44.8H9.3c-1.4,0-2.5-1.1-2.5-2.5V29.8c0-1.4,1.1-2.5,2.5-2.5h45.3c1.4,0,2.5,1.1,2.5,2.5v12.4
		C57.2,43.6,56.1,44.8,54.7,44.8z"/>
	<path class="st1" d="M18.7,38.6h-7.1c-1.1,0-2-0.9-2-2v-1.2c0-1.1,0.9-2,2-2h7.1c1.1,0,2,0.9,2,2v1.2
		C20.7,37.7,19.8,38.6,18.7,38.6z"/>
	<path class="st1" d="M52.3,38.6h-7.1c-1.1,0-2-0.9-2-2v-1.2c0-1.1,0.9-2,2-2h7.1c1.1,0,2,0.9,2,2v1.2
		C54.3,37.7,53.4,38.6,52.3,38.6z"/>
	<g>
		<line class="st2" x1="25.9" y1="33.4" x2="38" y2="33.4"/>
		<line class="st2" x1="25.9" y1="38.6" x2="38" y2="38.6"/>
		<line class="st2" x1="27.7" y1="36" x2="36.3" y2="36"/>
	</g>
	<path class="st2" d="M46.8,11.9h-29c-1.1,0-2.2,0.7-2.6,1.7L9.7,27.3h44.6l-5-13.7C48.8,12.5,47.9,11.9,46.8,11.9z"/>
	<path class="st2" d="M36.3,26.9c0-3.2,2.6-5.7,5.7-5.7c3.2,0,5.7,2.6,5.7,5.7"/>
</g>
</svg>
