<?xml version="1.0" encoding="utf-8"?>
<!-- Generator: Adobe Illustrator 24.2.0, SVG Export Plug-In . SVG Version: 6.00 Build 0)  -->
<svg version="1.1" id="Camada_1" xmlns="http://www.w3.org/2000/svg" xmlns:xlink="http://www.w3.org/1999/xlink" x="0px" y="0px"
	 viewBox="0 0 64 64" style="enable-background:new 0 0 64 64;" xml:space="preserve">
<style type="text/css">
	.st0{fill:#FFFFFF;}
	.st1{fill:#FFFFFF;stroke:#000000;stroke-miterlimit:10;}
	.st2{fill:none;stroke:#000000;stroke-linecap:round;stroke-miterlimit:10;}
	.st3{fill:none;stroke:#000000;stroke-miterlimit:10;}
	.st4{fill:none;stroke:#000000;stroke-linecap:round;stroke-linejoin:round;stroke-miterlimit:10;}
	.st5{fill:#FFFFFF;stroke:#000000;stroke-linecap:round;stroke-miterlimit:10;}
	.st6{fill:#FFFFFF;stroke:#000000;stroke-linecap:round;stroke-linejoin:round;stroke-miterlimit:10;}
</style>
<g>
	<g>
		<path class="st0" d="M7.6,45.7V27.9c0-1,0.8-1.9,1.9-1.9h45.1c1,0,1.9,0.8,1.9,1.9v17.9H7.6z"/>
		<path d="M54.5,26.5c0.7,0,1.4,0.6,1.4,1.4v17.4H8.1V27.9c0-0.7,0.6-1.4,1.4-1.4H54.5 M54.5,25.5H9.5c-1.3,0-2.4,1.1-2.4,2.4v18.4
			h49.8V27.9C56.9,26.6,55.8,25.5,54.5,25.5L54.5,25.5z"/>
	</g>
	<g>
		<path class="st0" d="M12.7,26.2V13.9c0-0.8,0.7-1.5,1.5-1.5h35.5c0.8,0,1.5,0.7,1.5,1.5v12.3H12.7z"/>
		<path d="M49.8,12.9c0.6,0,1,0.5,1,1v11.8H13.2V13.9c0-0.6,0.5-1,1-1H49.8 M49.8,11.9H14.2c-1.1,0-2,0.9-2,2v12.8h39.6V13.9
			C51.8,12.8,50.9,11.9,49.8,11.9L49.8,11.9z"/>
	</g>
	<g>
		<path class="st0" d="M21.4,26.2v-7.3c0-1.1,0.9-2.1,2.1-2.1h17.1c1.1,0,2.1,0.9,2.1,2.1v7.3H21.4z"/>
		<path d="M40.5,17.3c0.9,0,1.6,0.7,1.6,1.6v6.8H21.9v-6.8c0-0.9,0.7-1.6,1.6-1.6H40.5 M40.5,16.3H23.5c-1.4,0-2.6,1.2-2.6,2.6v7.8
			h22.2v-7.8C43.1,17.4,41.9,16.3,40.5,16.3L40.5,16.3z"/>
	</g>
	<g>
		<path class="st0" d="M8.1,51.6c-0.3,0-0.5-0.2-0.5-0.5v-5.9h3.4v5.9c0,0.3-0.2,0.5-0.5,0.5H8.1z"/>
		<path d="M10.6,45.7l0,5.4l-2.4,0v-5.4H10.6 M11.6,44.7H7.1v6.4c0,0.6,0.5,1,1,1h2.4c0.6,0,1-0.4,1-1V44.7L11.6,44.7z"/>
	</g>
	<g>
		<path class="st0" d="M53.4,51.6c-0.3,0-0.5-0.2-0.5-0.5v-5.9h3.4v5.9c0,0.3-0.2,0.5-0.5,0.5H53.4z"/>
		<path d="M55.9,45.7l0,5.4l-2.4,0v-5.4H55.9 M56.9,44.7h-4.4v6.4c0,0.6,0.4,1,1,1h2.4c0.6,0,1-0.4,1-1V44.7L56.9,44.7z"/>
	</g>
	<g>
		<rect x="7.6" y="34.9" class="st0" width="48.8" height="10.8"/>
		<path d="M55.9,35.4v9.8H8.1v-9.8H55.9 M56.9,34.4H7.1v11.8h49.8V34.4L56.9,34.4z"/>
	</g>
</g>
</svg>
