<svg width="64" height="64" viewBox="0 0 64 64" fill="none" xmlns="http://www.w3.org/2000/svg">
<path fill-rule="evenodd" clip-rule="evenodd" d="M6.40137 57.0398V26.8793H10.6677V57.0398C10.6677 57.6551 10.8924 58.2453 11.2925 58.6803C11.6925 59.1154 12.2351 59.3599 12.8008 59.3599H51.1976C51.7633 59.3599 52.3059 59.1154 52.706 58.6803C53.106 58.2453 53.3308 57.6551 53.3308 57.0398V26.8793H57.5971V57.0398C57.5971 58.8858 56.9228 60.6561 55.7227 61.9614C54.5226 63.2667 52.8948 64 51.1976 64H12.8008C11.1036 64 9.47586 63.2667 8.27573 61.9614C7.07559 60.6561 6.40137 58.8858 6.40137 57.0398V57.0398ZM53.3308 5.99888V22.2392L44.7981 12.959V5.99888C44.7981 5.38356 45.0229 4.79345 45.4229 4.35836C45.823 3.92327 46.3655 3.67883 46.9313 3.67883H51.1976C51.7633 3.67883 52.3059 3.92327 52.706 4.35836C53.106 4.79345 53.3308 5.38356 53.3308 5.99888Z" fill="white"/>
<path fill-rule="evenodd" clip-rule="evenodd" d="M28.9837 1.35855C29.7838 0.488673 30.8687 0 32 0C33.1313 0 34.2162 0.488673 35.0163 1.35855L63.3744 32.1966C63.775 32.6322 64 33.2231 64 33.8392C64 34.4552 63.775 35.0461 63.3744 35.4817C62.9739 35.9174 62.4306 36.1621 61.8642 36.1621C61.2977 36.1621 60.7544 35.9174 60.3539 35.4817L32 4.6391L3.64612 35.4817C3.24557 35.9174 2.70231 36.1621 2.13585 36.1621C1.56939 36.1621 1.02612 35.9174 0.625576 35.4817C0.225026 35.0461 0 34.4552 0 33.8392C0 33.2231 0.225026 32.6322 0.625576 32.1966L28.9837 1.35855Z" fill="white"/>
</svg>
